<mxfile host="app.diagrams.net" modified="2021-05-16T13:02:06.468Z" agent="5.0 (Windows NT 10.0; Win64; x64) AppleWebKit/537.36 (KHTML, like Gecko) Chrome/90.0.4430.93 Safari/537.36" etag="-gx66EF4Gxvkkv3zdEbQ" version="14.6.12" type="github">
  <diagram id="zXwTcbwHXeY-4p3rWh2A" name="Page-1">
    <mxGraphModel dx="1550" dy="868" grid="1" gridSize="10" guides="1" tooltips="1" connect="1" arrows="1" fold="1" page="1" pageScale="1" pageWidth="827" pageHeight="1169" math="0" shadow="0">
      <root>
        <mxCell id="0" />
        <mxCell id="1" parent="0" />
        <mxCell id="IjU1m3otz2W7L9WKnDXW-1" value="1" style="rounded=0;whiteSpace=wrap;html=1;strokeColor=#A50040;fontColor=#ffffff;fillColor=#FF0000;fontSize=22;" vertex="1" parent="1">
          <mxGeometry x="80" y="160" width="20" height="40" as="geometry" />
        </mxCell>
        <mxCell id="IjU1m3otz2W7L9WKnDXW-2" value="1" style="rounded=0;whiteSpace=wrap;html=1;strokeColor=#A50040;fontColor=#ffffff;fillColor=#FF0000;fontSize=22;" vertex="1" parent="1">
          <mxGeometry x="110" y="160" width="20" height="40" as="geometry" />
        </mxCell>
        <mxCell id="IjU1m3otz2W7L9WKnDXW-3" value="2" style="rounded=0;whiteSpace=wrap;html=1;strokeColor=#A50040;fontColor=#ffffff;fillColor=#FF0000;fontSize=22;" vertex="1" parent="1">
          <mxGeometry x="140" y="160" width="20" height="40" as="geometry" />
        </mxCell>
        <mxCell id="IjU1m3otz2W7L9WKnDXW-4" value="2" style="rounded=0;whiteSpace=wrap;html=1;strokeColor=#A50040;fontColor=#ffffff;fillColor=#FF0000;fontSize=22;" vertex="1" parent="1">
          <mxGeometry x="170" y="160" width="20" height="40" as="geometry" />
        </mxCell>
        <mxCell id="IjU1m3otz2W7L9WKnDXW-5" value="3" style="rounded=0;whiteSpace=wrap;html=1;strokeColor=#A50040;fontColor=#ffffff;fillColor=#FF0000;fontSize=22;" vertex="1" parent="1">
          <mxGeometry x="80" y="210" width="20" height="40" as="geometry" />
        </mxCell>
        <mxCell id="IjU1m3otz2W7L9WKnDXW-6" value="3" style="rounded=0;whiteSpace=wrap;html=1;strokeColor=#A50040;fontColor=#ffffff;fillColor=#FF0000;fontSize=22;" vertex="1" parent="1">
          <mxGeometry x="110" y="210" width="20" height="40" as="geometry" />
        </mxCell>
        <mxCell id="IjU1m3otz2W7L9WKnDXW-7" value="3" style="rounded=0;whiteSpace=wrap;html=1;strokeColor=#A50040;fontColor=#ffffff;fillColor=#FF0000;fontSize=22;" vertex="1" parent="1">
          <mxGeometry x="140" y="210" width="20" height="40" as="geometry" />
        </mxCell>
        <mxCell id="IjU1m3otz2W7L9WKnDXW-8" value="5" style="rounded=0;whiteSpace=wrap;html=1;strokeColor=#A50040;fontColor=#ffffff;fillColor=#FF0000;fontSize=22;" vertex="1" parent="1">
          <mxGeometry x="170" y="210" width="20" height="40" as="geometry" />
        </mxCell>
        <mxCell id="IjU1m3otz2W7L9WKnDXW-9" value="6" style="rounded=0;whiteSpace=wrap;html=1;strokeColor=#A50040;fontColor=#ffffff;fillColor=#FF0000;fontSize=22;" vertex="1" parent="1">
          <mxGeometry x="80" y="260" width="20" height="40" as="geometry" />
        </mxCell>
        <mxCell id="IjU1m3otz2W7L9WKnDXW-10" value="7" style="rounded=0;whiteSpace=wrap;html=1;strokeColor=#A50040;fontColor=#ffffff;fillColor=#FF0000;fontSize=22;" vertex="1" parent="1">
          <mxGeometry x="110" y="260" width="20" height="40" as="geometry" />
        </mxCell>
        <mxCell id="IjU1m3otz2W7L9WKnDXW-11" value="8" style="rounded=0;whiteSpace=wrap;html=1;strokeColor=#A50040;fontColor=#ffffff;fillColor=#FF0000;fontSize=22;" vertex="1" parent="1">
          <mxGeometry x="140" y="260" width="20" height="40" as="geometry" />
        </mxCell>
        <mxCell id="IjU1m3otz2W7L9WKnDXW-12" value="9" style="rounded=0;whiteSpace=wrap;html=1;strokeColor=#A50040;fontColor=#ffffff;fillColor=#FF0000;fontSize=22;" vertex="1" parent="1">
          <mxGeometry x="170" y="260" width="20" height="40" as="geometry" />
        </mxCell>
        <mxCell id="IjU1m3otz2W7L9WKnDXW-13" value="Source" style="rounded=1;whiteSpace=wrap;html=1;fontSize=22;fillColor=#FF0000;fontColor=#FFFFFF;" vertex="1" parent="1">
          <mxGeometry x="80" y="375" width="110" height="60" as="geometry" />
        </mxCell>
        <mxCell id="IjU1m3otz2W7L9WKnDXW-145" style="edgeStyle=orthogonalEdgeStyle;rounded=0;orthogonalLoop=1;jettySize=auto;html=1;fontSize=22;fontColor=#FFFFFF;" edge="1" parent="1" source="IjU1m3otz2W7L9WKnDXW-14" target="IjU1m3otz2W7L9WKnDXW-134">
          <mxGeometry relative="1" as="geometry" />
        </mxCell>
        <mxCell id="IjU1m3otz2W7L9WKnDXW-14" value="Map" style="ellipse;whiteSpace=wrap;html=1;aspect=fixed;fontSize=22;fontColor=#FFFFFF;fillColor=#66B2FF;" vertex="1" parent="1">
          <mxGeometry x="835" y="220" width="80" height="80" as="geometry" />
        </mxCell>
        <mxCell id="IjU1m3otz2W7L9WKnDXW-15" value="Map" style="ellipse;whiteSpace=wrap;html=1;aspect=fixed;fontSize=22;fontColor=#FFFFFF;fillColor=#66B2FF;" vertex="1" parent="1">
          <mxGeometry x="835" y="360" width="80" height="80" as="geometry" />
        </mxCell>
        <mxCell id="IjU1m3otz2W7L9WKnDXW-146" style="edgeStyle=orthogonalEdgeStyle;rounded=0;orthogonalLoop=1;jettySize=auto;html=1;entryX=0;entryY=0.5;entryDx=0;entryDy=0;fontSize=22;fontColor=#FFFFFF;" edge="1" parent="1" source="IjU1m3otz2W7L9WKnDXW-20" target="IjU1m3otz2W7L9WKnDXW-140">
          <mxGeometry relative="1" as="geometry" />
        </mxCell>
        <mxCell id="IjU1m3otz2W7L9WKnDXW-20" value="Map" style="ellipse;whiteSpace=wrap;html=1;aspect=fixed;fontSize=22;fillColor=#66B2FF;fontColor=#FFFFFF;" vertex="1" parent="1">
          <mxGeometry x="835" y="500" width="80" height="80" as="geometry" />
        </mxCell>
        <mxCell id="IjU1m3otz2W7L9WKnDXW-21" value="1" style="rounded=0;whiteSpace=wrap;html=1;strokeColor=#A50040;fontColor=#ffffff;fillColor=#FF0000;fontSize=22;" vertex="1" parent="1">
          <mxGeometry x="80" y="160" width="20" height="40" as="geometry" />
        </mxCell>
        <mxCell id="IjU1m3otz2W7L9WKnDXW-22" value="1" style="rounded=0;whiteSpace=wrap;html=1;strokeColor=#A50040;fontColor=#ffffff;fillColor=#FF0000;fontSize=22;" vertex="1" parent="1">
          <mxGeometry x="110" y="160" width="20" height="40" as="geometry" />
        </mxCell>
        <mxCell id="IjU1m3otz2W7L9WKnDXW-23" value="7" style="rounded=0;whiteSpace=wrap;html=1;strokeColor=#A50040;fontColor=#ffffff;fillColor=#FF0000;fontSize=22;" vertex="1" parent="1">
          <mxGeometry x="865" y="170" width="20" height="40" as="geometry" />
        </mxCell>
        <mxCell id="IjU1m3otz2W7L9WKnDXW-24" value="1" style="rounded=0;whiteSpace=wrap;html=1;strokeColor=#A50040;fontColor=#ffffff;fillColor=#FF0000;fontSize=22;" vertex="1" parent="1">
          <mxGeometry x="805" y="170" width="20" height="40" as="geometry" />
        </mxCell>
        <mxCell id="IjU1m3otz2W7L9WKnDXW-25" value="1" style="rounded=0;whiteSpace=wrap;html=1;strokeColor=#A50040;fontColor=#ffffff;fillColor=#FF0000;fontSize=22;" vertex="1" parent="1">
          <mxGeometry x="835" y="170" width="20" height="40" as="geometry" />
        </mxCell>
        <mxCell id="IjU1m3otz2W7L9WKnDXW-28" value="2" style="rounded=0;whiteSpace=wrap;html=1;strokeColor=#A50040;fontColor=#ffffff;fillColor=#FF0000;fontSize=22;" vertex="1" parent="1">
          <mxGeometry x="802.5" y="310" width="20" height="40" as="geometry" />
        </mxCell>
        <mxCell id="IjU1m3otz2W7L9WKnDXW-29" value="2" style="rounded=0;whiteSpace=wrap;html=1;strokeColor=#A50040;fontColor=#ffffff;fillColor=#FF0000;fontSize=22;" vertex="1" parent="1">
          <mxGeometry x="837.5" y="310" width="20" height="40" as="geometry" />
        </mxCell>
        <mxCell id="IjU1m3otz2W7L9WKnDXW-30" value="5" style="rounded=0;whiteSpace=wrap;html=1;strokeColor=#A50040;fontColor=#ffffff;fillColor=#FF0000;fontSize=22;" vertex="1" parent="1">
          <mxGeometry x="867.5" y="310" width="20" height="40" as="geometry" />
        </mxCell>
        <mxCell id="IjU1m3otz2W7L9WKnDXW-31" value="8" style="rounded=0;whiteSpace=wrap;html=1;strokeColor=#A50040;fontColor=#ffffff;fillColor=#FF0000;fontSize=22;" vertex="1" parent="1">
          <mxGeometry x="897.5" y="310" width="20" height="40" as="geometry" />
        </mxCell>
        <mxCell id="IjU1m3otz2W7L9WKnDXW-36" value="&lt;font color=&quot;#ffffff&quot;&gt;Agg&lt;/font&gt;" style="ellipse;whiteSpace=wrap;html=1;aspect=fixed;fontSize=22;fillColor=#FF0000;" vertex="1" parent="1">
          <mxGeometry x="300" y="295" width="80" height="80" as="geometry" />
        </mxCell>
        <mxCell id="IjU1m3otz2W7L9WKnDXW-37" value="1" style="rounded=0;whiteSpace=wrap;html=1;strokeColor=#A50040;fontColor=#ffffff;fontSize=22;fillColor=#7F00FF;" vertex="1" parent="1">
          <mxGeometry x="80" y="315" width="20" height="40" as="geometry" />
        </mxCell>
        <mxCell id="IjU1m3otz2W7L9WKnDXW-38" value="4" style="rounded=0;whiteSpace=wrap;html=1;strokeColor=#A50040;fontColor=#ffffff;fontSize=22;fillColor=#7F00FF;" vertex="1" parent="1">
          <mxGeometry x="110" y="315" width="20" height="40" as="geometry" />
        </mxCell>
        <mxCell id="IjU1m3otz2W7L9WKnDXW-39" value="5" style="rounded=0;whiteSpace=wrap;html=1;strokeColor=#A50040;fontColor=#ffffff;fontSize=22;fillColor=#7F00FF;" vertex="1" parent="1">
          <mxGeometry x="140" y="315" width="20" height="40" as="geometry" />
        </mxCell>
        <mxCell id="IjU1m3otz2W7L9WKnDXW-40" value="6" style="rounded=0;whiteSpace=wrap;html=1;strokeColor=#A50040;fontColor=#ffffff;fontSize=22;fillColor=#7F00FF;" vertex="1" parent="1">
          <mxGeometry x="170" y="315" width="20" height="40" as="geometry" />
        </mxCell>
        <mxCell id="IjU1m3otz2W7L9WKnDXW-41" value="Agg" style="ellipse;whiteSpace=wrap;html=1;aspect=fixed;fontSize=22;fillColor=#7F00FF;fontColor=#FFFFFF;" vertex="1" parent="1">
          <mxGeometry x="300" y="435" width="80" height="80" as="geometry" />
        </mxCell>
        <mxCell id="IjU1m3otz2W7L9WKnDXW-42" value="1" style="rounded=0;whiteSpace=wrap;html=1;strokeColor=#A50040;fontColor=#ffffff;fillColor=#FF0000;fontSize=22;" vertex="1" parent="1">
          <mxGeometry x="285" y="140" width="20" height="40" as="geometry" />
        </mxCell>
        <mxCell id="IjU1m3otz2W7L9WKnDXW-43" value="1" style="rounded=0;whiteSpace=wrap;html=1;strokeColor=#A50040;fontColor=#ffffff;fillColor=#FF0000;fontSize=22;" vertex="1" parent="1">
          <mxGeometry x="315" y="140" width="20" height="40" as="geometry" />
        </mxCell>
        <mxCell id="IjU1m3otz2W7L9WKnDXW-44" value="2" style="rounded=0;whiteSpace=wrap;html=1;strokeColor=#A50040;fontColor=#ffffff;fillColor=#FF0000;fontSize=22;" vertex="1" parent="1">
          <mxGeometry x="345" y="140" width="20" height="40" as="geometry" />
        </mxCell>
        <mxCell id="IjU1m3otz2W7L9WKnDXW-45" value="2" style="rounded=0;whiteSpace=wrap;html=1;strokeColor=#A50040;fontColor=#ffffff;fillColor=#FF0000;fontSize=22;" vertex="1" parent="1">
          <mxGeometry x="375" y="140" width="20" height="40" as="geometry" />
        </mxCell>
        <mxCell id="IjU1m3otz2W7L9WKnDXW-46" value="3" style="rounded=0;whiteSpace=wrap;html=1;strokeColor=#A50040;fontColor=#ffffff;fillColor=#FF0000;fontSize=22;" vertex="1" parent="1">
          <mxGeometry x="285" y="190" width="20" height="40" as="geometry" />
        </mxCell>
        <mxCell id="IjU1m3otz2W7L9WKnDXW-47" value="3" style="rounded=0;whiteSpace=wrap;html=1;strokeColor=#A50040;fontColor=#ffffff;fillColor=#FF0000;fontSize=22;" vertex="1" parent="1">
          <mxGeometry x="315" y="190" width="20" height="40" as="geometry" />
        </mxCell>
        <mxCell id="IjU1m3otz2W7L9WKnDXW-48" value="3" style="rounded=0;whiteSpace=wrap;html=1;strokeColor=#A50040;fontColor=#ffffff;fillColor=#FF0000;fontSize=22;" vertex="1" parent="1">
          <mxGeometry x="345" y="190" width="20" height="40" as="geometry" />
        </mxCell>
        <mxCell id="IjU1m3otz2W7L9WKnDXW-49" value="5" style="rounded=0;whiteSpace=wrap;html=1;strokeColor=#A50040;fontColor=#ffffff;fillColor=#FF0000;fontSize=22;" vertex="1" parent="1">
          <mxGeometry x="375" y="190" width="20" height="40" as="geometry" />
        </mxCell>
        <mxCell id="IjU1m3otz2W7L9WKnDXW-50" value="6" style="rounded=0;whiteSpace=wrap;html=1;strokeColor=#A50040;fontColor=#ffffff;fillColor=#FF0000;fontSize=22;" vertex="1" parent="1">
          <mxGeometry x="285" y="240" width="20" height="40" as="geometry" />
        </mxCell>
        <mxCell id="IjU1m3otz2W7L9WKnDXW-51" value="7" style="rounded=0;whiteSpace=wrap;html=1;strokeColor=#A50040;fontColor=#ffffff;fontSize=22;fillColor=#FF0000;" vertex="1" parent="1">
          <mxGeometry x="315" y="240" width="20" height="40" as="geometry" />
        </mxCell>
        <mxCell id="IjU1m3otz2W7L9WKnDXW-52" value="8" style="rounded=0;whiteSpace=wrap;html=1;strokeColor=#A50040;fontColor=#ffffff;fillColor=#FF0000;fontSize=22;" vertex="1" parent="1">
          <mxGeometry x="345" y="240" width="20" height="40" as="geometry" />
        </mxCell>
        <mxCell id="IjU1m3otz2W7L9WKnDXW-53" value="9" style="rounded=0;whiteSpace=wrap;html=1;strokeColor=#A50040;fontColor=#ffffff;fillColor=#FF0000;fontSize=22;" vertex="1" parent="1">
          <mxGeometry x="375" y="240" width="20" height="40" as="geometry" />
        </mxCell>
        <mxCell id="IjU1m3otz2W7L9WKnDXW-54" value="1" style="rounded=0;whiteSpace=wrap;html=1;strokeColor=#A50040;fontColor=#ffffff;fillColor=#FF0000;fontSize=22;" vertex="1" parent="1">
          <mxGeometry x="285" y="140" width="20" height="40" as="geometry" />
        </mxCell>
        <mxCell id="IjU1m3otz2W7L9WKnDXW-55" value="1" style="rounded=0;whiteSpace=wrap;html=1;strokeColor=#A50040;fontColor=#ffffff;fillColor=#FF0000;fontSize=22;" vertex="1" parent="1">
          <mxGeometry x="315" y="140" width="20" height="40" as="geometry" />
        </mxCell>
        <mxCell id="IjU1m3otz2W7L9WKnDXW-56" value="1" style="rounded=0;whiteSpace=wrap;html=1;strokeColor=#A50040;fontColor=#ffffff;fontSize=22;fillColor=#7F00FF;" vertex="1" parent="1">
          <mxGeometry x="290" y="540" width="20" height="40" as="geometry" />
        </mxCell>
        <mxCell id="IjU1m3otz2W7L9WKnDXW-57" value="4" style="rounded=0;whiteSpace=wrap;html=1;strokeColor=#A50040;fontColor=#ffffff;fontSize=22;fillColor=#7F00FF;" vertex="1" parent="1">
          <mxGeometry x="320" y="540" width="20" height="40" as="geometry" />
        </mxCell>
        <mxCell id="IjU1m3otz2W7L9WKnDXW-58" value="5" style="rounded=0;whiteSpace=wrap;html=1;strokeColor=#A50040;fontColor=#ffffff;fontSize=22;fillColor=#7F00FF;" vertex="1" parent="1">
          <mxGeometry x="350" y="540" width="20" height="40" as="geometry" />
        </mxCell>
        <mxCell id="IjU1m3otz2W7L9WKnDXW-59" value="6" style="rounded=0;whiteSpace=wrap;html=1;strokeColor=#A50040;fontColor=#ffffff;fontSize=22;fillColor=#7F00FF;" vertex="1" parent="1">
          <mxGeometry x="380" y="540" width="20" height="40" as="geometry" />
        </mxCell>
        <mxCell id="IjU1m3otz2W7L9WKnDXW-60" value="" style="endArrow=classic;html=1;fontSize=22;exitX=1;exitY=0.5;exitDx=0;exitDy=0;entryX=0;entryY=0.5;entryDx=0;entryDy=0;" edge="1" parent="1" source="IjU1m3otz2W7L9WKnDXW-13" target="IjU1m3otz2W7L9WKnDXW-36">
          <mxGeometry width="50" height="50" relative="1" as="geometry">
            <mxPoint x="390" y="470" as="sourcePoint" />
            <mxPoint x="440" y="420" as="targetPoint" />
          </mxGeometry>
        </mxCell>
        <mxCell id="IjU1m3otz2W7L9WKnDXW-61" value="" style="endArrow=classic;html=1;fontSize=22;exitX=1;exitY=0.5;exitDx=0;exitDy=0;entryX=0;entryY=0.5;entryDx=0;entryDy=0;" edge="1" parent="1" source="IjU1m3otz2W7L9WKnDXW-13" target="IjU1m3otz2W7L9WKnDXW-41">
          <mxGeometry width="50" height="50" relative="1" as="geometry">
            <mxPoint x="200" y="415" as="sourcePoint" />
            <mxPoint x="310" y="345" as="targetPoint" />
          </mxGeometry>
        </mxCell>
        <mxCell id="IjU1m3otz2W7L9WKnDXW-62" value="&lt;font color=&quot;#ffffff&quot;&gt;HOT!&lt;/font&gt;" style="whiteSpace=wrap;html=1;shape=mxgraph.basic.roundRectCallout;dx=30;dy=15;size=5;boundedLbl=1;fontSize=22;fillColor=#FF0000;" vertex="1" parent="1">
          <mxGeometry x="380" y="290" width="76" height="50" as="geometry" />
        </mxCell>
        <mxCell id="IjU1m3otz2W7L9WKnDXW-63" value="" style="html=1;shadow=0;dashed=0;align=center;verticalAlign=middle;shape=mxgraph.arrows2.arrow;dy=0.6;dx=40;notch=0;fontSize=22;fontColor=#000000;strokeColor=#C73500;fillColor=#fa6800;" vertex="1" parent="1">
          <mxGeometry x="420" y="370" width="130" height="70" as="geometry" />
        </mxCell>
        <mxCell id="IjU1m3otz2W7L9WKnDXW-102" value="1" style="rounded=0;whiteSpace=wrap;html=1;strokeColor=#A50040;fontColor=#ffffff;fillColor=#FF0000;fontSize=22;" vertex="1" parent="1">
          <mxGeometry x="590" y="160" width="20" height="40" as="geometry" />
        </mxCell>
        <mxCell id="IjU1m3otz2W7L9WKnDXW-103" value="1" style="rounded=0;whiteSpace=wrap;html=1;strokeColor=#A50040;fontColor=#ffffff;fillColor=#FF0000;fontSize=22;" vertex="1" parent="1">
          <mxGeometry x="620" y="160" width="20" height="40" as="geometry" />
        </mxCell>
        <mxCell id="IjU1m3otz2W7L9WKnDXW-104" value="2" style="rounded=0;whiteSpace=wrap;html=1;strokeColor=#A50040;fontColor=#ffffff;fillColor=#FF0000;fontSize=22;" vertex="1" parent="1">
          <mxGeometry x="650" y="160" width="20" height="40" as="geometry" />
        </mxCell>
        <mxCell id="IjU1m3otz2W7L9WKnDXW-105" value="2" style="rounded=0;whiteSpace=wrap;html=1;strokeColor=#A50040;fontColor=#ffffff;fillColor=#FF0000;fontSize=22;" vertex="1" parent="1">
          <mxGeometry x="680" y="160" width="20" height="40" as="geometry" />
        </mxCell>
        <mxCell id="IjU1m3otz2W7L9WKnDXW-106" value="3" style="rounded=0;whiteSpace=wrap;html=1;strokeColor=#A50040;fontColor=#ffffff;fillColor=#FF0000;fontSize=22;" vertex="1" parent="1">
          <mxGeometry x="590" y="210" width="20" height="40" as="geometry" />
        </mxCell>
        <mxCell id="IjU1m3otz2W7L9WKnDXW-107" value="3" style="rounded=0;whiteSpace=wrap;html=1;strokeColor=#A50040;fontColor=#ffffff;fillColor=#FF0000;fontSize=22;" vertex="1" parent="1">
          <mxGeometry x="620" y="210" width="20" height="40" as="geometry" />
        </mxCell>
        <mxCell id="IjU1m3otz2W7L9WKnDXW-108" value="3" style="rounded=0;whiteSpace=wrap;html=1;strokeColor=#A50040;fontColor=#ffffff;fillColor=#FF0000;fontSize=22;" vertex="1" parent="1">
          <mxGeometry x="650" y="210" width="20" height="40" as="geometry" />
        </mxCell>
        <mxCell id="IjU1m3otz2W7L9WKnDXW-109" value="5" style="rounded=0;whiteSpace=wrap;html=1;strokeColor=#A50040;fontColor=#ffffff;fillColor=#FF0000;fontSize=22;" vertex="1" parent="1">
          <mxGeometry x="680" y="210" width="20" height="40" as="geometry" />
        </mxCell>
        <mxCell id="IjU1m3otz2W7L9WKnDXW-110" value="6" style="rounded=0;whiteSpace=wrap;html=1;strokeColor=#A50040;fontColor=#ffffff;fillColor=#FF0000;fontSize=22;" vertex="1" parent="1">
          <mxGeometry x="590" y="260" width="20" height="40" as="geometry" />
        </mxCell>
        <mxCell id="IjU1m3otz2W7L9WKnDXW-111" value="7" style="rounded=0;whiteSpace=wrap;html=1;strokeColor=#A50040;fontColor=#ffffff;fillColor=#FF0000;fontSize=22;" vertex="1" parent="1">
          <mxGeometry x="620" y="260" width="20" height="40" as="geometry" />
        </mxCell>
        <mxCell id="IjU1m3otz2W7L9WKnDXW-112" value="8" style="rounded=0;whiteSpace=wrap;html=1;strokeColor=#A50040;fontColor=#ffffff;fillColor=#FF0000;fontSize=22;" vertex="1" parent="1">
          <mxGeometry x="650" y="260" width="20" height="40" as="geometry" />
        </mxCell>
        <mxCell id="IjU1m3otz2W7L9WKnDXW-113" value="9" style="rounded=0;whiteSpace=wrap;html=1;strokeColor=#A50040;fontColor=#ffffff;fillColor=#FF0000;fontSize=22;" vertex="1" parent="1">
          <mxGeometry x="680" y="260" width="20" height="40" as="geometry" />
        </mxCell>
        <mxCell id="IjU1m3otz2W7L9WKnDXW-114" value="Source" style="rounded=1;whiteSpace=wrap;html=1;fontSize=22;fillColor=#FF0000;fontColor=#FFFFFF;" vertex="1" parent="1">
          <mxGeometry x="590" y="375" width="110" height="60" as="geometry" />
        </mxCell>
        <mxCell id="IjU1m3otz2W7L9WKnDXW-115" value="1" style="rounded=0;whiteSpace=wrap;html=1;strokeColor=#A50040;fontColor=#ffffff;fillColor=#FF0000;fontSize=22;" vertex="1" parent="1">
          <mxGeometry x="590" y="160" width="20" height="40" as="geometry" />
        </mxCell>
        <mxCell id="IjU1m3otz2W7L9WKnDXW-116" value="1" style="rounded=0;whiteSpace=wrap;html=1;strokeColor=#A50040;fontColor=#ffffff;fillColor=#FF0000;fontSize=22;" vertex="1" parent="1">
          <mxGeometry x="620" y="160" width="20" height="40" as="geometry" />
        </mxCell>
        <mxCell id="IjU1m3otz2W7L9WKnDXW-117" value="1" style="rounded=0;whiteSpace=wrap;html=1;strokeColor=#A50040;fontColor=#ffffff;fontSize=22;fillColor=#7F00FF;" vertex="1" parent="1">
          <mxGeometry x="590" y="315" width="20" height="40" as="geometry" />
        </mxCell>
        <mxCell id="IjU1m3otz2W7L9WKnDXW-118" value="4" style="rounded=0;whiteSpace=wrap;html=1;strokeColor=#A50040;fontColor=#ffffff;fontSize=22;fillColor=#7F00FF;" vertex="1" parent="1">
          <mxGeometry x="620" y="315" width="20" height="40" as="geometry" />
        </mxCell>
        <mxCell id="IjU1m3otz2W7L9WKnDXW-119" value="5" style="rounded=0;whiteSpace=wrap;html=1;strokeColor=#A50040;fontColor=#ffffff;fontSize=22;fillColor=#7F00FF;" vertex="1" parent="1">
          <mxGeometry x="650" y="315" width="20" height="40" as="geometry" />
        </mxCell>
        <mxCell id="IjU1m3otz2W7L9WKnDXW-120" value="6" style="rounded=0;whiteSpace=wrap;html=1;strokeColor=#A50040;fontColor=#ffffff;fontSize=22;fillColor=#7F00FF;" vertex="1" parent="1">
          <mxGeometry x="680" y="315" width="20" height="40" as="geometry" />
        </mxCell>
        <mxCell id="IjU1m3otz2W7L9WKnDXW-121" value="3" style="rounded=0;whiteSpace=wrap;html=1;strokeColor=#A50040;fontColor=#ffffff;fillColor=#FF0000;fontSize=22;" vertex="1" parent="1">
          <mxGeometry x="790" y="450" width="20" height="40" as="geometry" />
        </mxCell>
        <mxCell id="IjU1m3otz2W7L9WKnDXW-122" value="3" style="rounded=0;whiteSpace=wrap;html=1;strokeColor=#A50040;fontColor=#ffffff;fillColor=#FF0000;fontSize=22;" vertex="1" parent="1">
          <mxGeometry x="820" y="450" width="20" height="40" as="geometry" />
        </mxCell>
        <mxCell id="IjU1m3otz2W7L9WKnDXW-123" value="3" style="rounded=0;whiteSpace=wrap;html=1;strokeColor=#A50040;fontColor=#ffffff;fillColor=#FF0000;fontSize=22;" vertex="1" parent="1">
          <mxGeometry x="850" y="450" width="20" height="40" as="geometry" />
        </mxCell>
        <mxCell id="IjU1m3otz2W7L9WKnDXW-124" value="6" style="rounded=0;whiteSpace=wrap;html=1;strokeColor=#A50040;fontColor=#ffffff;fillColor=#FF0000;fontSize=22;" vertex="1" parent="1">
          <mxGeometry x="880" y="450" width="20" height="40" as="geometry" />
        </mxCell>
        <mxCell id="IjU1m3otz2W7L9WKnDXW-125" value="9" style="rounded=0;whiteSpace=wrap;html=1;strokeColor=#A50040;fontColor=#ffffff;fillColor=#FF0000;fontSize=22;" vertex="1" parent="1">
          <mxGeometry x="910" y="450" width="20" height="40" as="geometry" />
        </mxCell>
        <mxCell id="IjU1m3otz2W7L9WKnDXW-127" value="1" style="rounded=0;whiteSpace=wrap;html=1;strokeColor=#A50040;fontColor=#ffffff;fontSize=22;fillColor=#7F00FF;" vertex="1" parent="1">
          <mxGeometry x="895" y="170" width="20" height="40" as="geometry" />
        </mxCell>
        <mxCell id="IjU1m3otz2W7L9WKnDXW-128" value="4" style="rounded=0;whiteSpace=wrap;html=1;strokeColor=#A50040;fontColor=#ffffff;fontSize=22;fillColor=#7F00FF;" vertex="1" parent="1">
          <mxGeometry x="925" y="170" width="20" height="40" as="geometry" />
        </mxCell>
        <mxCell id="IjU1m3otz2W7L9WKnDXW-129" value="5" style="rounded=0;whiteSpace=wrap;html=1;strokeColor=#A50040;fontColor=#ffffff;fontSize=22;fillColor=#7F00FF;" vertex="1" parent="1">
          <mxGeometry x="927.5" y="310" width="20" height="40" as="geometry" />
        </mxCell>
        <mxCell id="IjU1m3otz2W7L9WKnDXW-130" value="6" style="rounded=0;whiteSpace=wrap;html=1;strokeColor=#A50040;fontColor=#ffffff;fontSize=22;fillColor=#7F00FF;" vertex="1" parent="1">
          <mxGeometry x="940" y="450" width="20" height="40" as="geometry" />
        </mxCell>
        <mxCell id="IjU1m3otz2W7L9WKnDXW-131" value="" style="endArrow=classic;html=1;fontSize=22;exitX=1;exitY=0.5;exitDx=0;exitDy=0;entryX=0;entryY=0.5;entryDx=0;entryDy=0;" edge="1" parent="1" source="IjU1m3otz2W7L9WKnDXW-114" target="IjU1m3otz2W7L9WKnDXW-14">
          <mxGeometry width="50" height="50" relative="1" as="geometry">
            <mxPoint x="140" y="415" as="sourcePoint" />
            <mxPoint x="250" y="345" as="targetPoint" />
          </mxGeometry>
        </mxCell>
        <mxCell id="IjU1m3otz2W7L9WKnDXW-132" value="" style="endArrow=classic;html=1;fontSize=22;exitX=1;exitY=0.5;exitDx=0;exitDy=0;" edge="1" parent="1" source="IjU1m3otz2W7L9WKnDXW-114" target="IjU1m3otz2W7L9WKnDXW-15">
          <mxGeometry width="50" height="50" relative="1" as="geometry">
            <mxPoint x="710" y="415" as="sourcePoint" />
            <mxPoint x="1015" y="275" as="targetPoint" />
          </mxGeometry>
        </mxCell>
        <mxCell id="IjU1m3otz2W7L9WKnDXW-133" value="" style="endArrow=classic;html=1;fontSize=22;exitX=1;exitY=0.5;exitDx=0;exitDy=0;entryX=0;entryY=0.5;entryDx=0;entryDy=0;" edge="1" parent="1" source="IjU1m3otz2W7L9WKnDXW-114" target="IjU1m3otz2W7L9WKnDXW-20">
          <mxGeometry width="50" height="50" relative="1" as="geometry">
            <mxPoint x="720" y="425" as="sourcePoint" />
            <mxPoint x="1025" y="285" as="targetPoint" />
          </mxGeometry>
        </mxCell>
        <mxCell id="IjU1m3otz2W7L9WKnDXW-134" value="Local&lt;br&gt;Agg" style="ellipse;whiteSpace=wrap;html=1;aspect=fixed;fontSize=22;fontColor=#FFFFFF;fillColor=#66B2FF;" vertex="1" parent="1">
          <mxGeometry x="1000" y="220" width="80" height="80" as="geometry" />
        </mxCell>
        <mxCell id="IjU1m3otz2W7L9WKnDXW-135" value="9" style="rounded=0;whiteSpace=wrap;html=1;strokeColor=#A50040;fontColor=#ffffff;fillColor=#FF0000;fontSize=22;" vertex="1" parent="1">
          <mxGeometry x="1015" y="170" width="20" height="40" as="geometry" />
        </mxCell>
        <mxCell id="IjU1m3otz2W7L9WKnDXW-136" value="5" style="rounded=0;whiteSpace=wrap;html=1;strokeColor=#A50040;fontColor=#ffffff;fontSize=22;fillColor=#7F00FF;" vertex="1" parent="1">
          <mxGeometry x="1045" y="170" width="20" height="40" as="geometry" />
        </mxCell>
        <mxCell id="IjU1m3otz2W7L9WKnDXW-137" value="Local&lt;br&gt;Agg" style="ellipse;whiteSpace=wrap;html=1;aspect=fixed;fontSize=22;fontColor=#FFFFFF;fillColor=#66B2FF;" vertex="1" parent="1">
          <mxGeometry x="1000" y="360" width="80" height="80" as="geometry" />
        </mxCell>
        <mxCell id="IjU1m3otz2W7L9WKnDXW-138" value="17" style="rounded=0;whiteSpace=wrap;html=1;strokeColor=#A50040;fontColor=#ffffff;fillColor=#FF0000;fontSize=22;" vertex="1" parent="1">
          <mxGeometry x="1010" y="310" width="25" height="40" as="geometry" />
        </mxCell>
        <mxCell id="IjU1m3otz2W7L9WKnDXW-139" value="5" style="rounded=0;whiteSpace=wrap;html=1;strokeColor=#A50040;fontColor=#ffffff;fontSize=22;fillColor=#7F00FF;" vertex="1" parent="1">
          <mxGeometry x="1045" y="310" width="20" height="40" as="geometry" />
        </mxCell>
        <mxCell id="IjU1m3otz2W7L9WKnDXW-140" value="Local&lt;br&gt;Agg" style="ellipse;whiteSpace=wrap;html=1;aspect=fixed;fontSize=22;fontColor=#FFFFFF;fillColor=#66B2FF;" vertex="1" parent="1">
          <mxGeometry x="1000" y="500" width="80" height="80" as="geometry" />
        </mxCell>
        <mxCell id="IjU1m3otz2W7L9WKnDXW-141" value="24" style="rounded=0;whiteSpace=wrap;html=1;strokeColor=#A50040;fontColor=#ffffff;fillColor=#FF0000;fontSize=22;" vertex="1" parent="1">
          <mxGeometry x="1010" y="450" width="25" height="40" as="geometry" />
        </mxCell>
        <mxCell id="IjU1m3otz2W7L9WKnDXW-142" value="6" style="rounded=0;whiteSpace=wrap;html=1;strokeColor=#A50040;fontColor=#ffffff;fontSize=22;fillColor=#7F00FF;" vertex="1" parent="1">
          <mxGeometry x="1045" y="450" width="20" height="40" as="geometry" />
        </mxCell>
        <mxCell id="IjU1m3otz2W7L9WKnDXW-144" value="" style="endArrow=classic;html=1;fontSize=22;exitX=1;exitY=0.5;exitDx=0;exitDy=0;entryX=0;entryY=0.5;entryDx=0;entryDy=0;" edge="1" parent="1" source="IjU1m3otz2W7L9WKnDXW-15" target="IjU1m3otz2W7L9WKnDXW-137">
          <mxGeometry width="50" height="50" relative="1" as="geometry">
            <mxPoint x="660" y="415" as="sourcePoint" />
            <mxPoint x="845.0098728867479" y="410.8886694914056" as="targetPoint" />
          </mxGeometry>
        </mxCell>
        <mxCell id="IjU1m3otz2W7L9WKnDXW-147" value="&lt;font color=&quot;#ffffff&quot;&gt;Global&lt;br&gt;Agg&lt;/font&gt;" style="ellipse;whiteSpace=wrap;html=1;aspect=fixed;fontSize=22;fillColor=#FF0000;" vertex="1" parent="1">
          <mxGeometry x="1190" y="290" width="80" height="80" as="geometry" />
        </mxCell>
        <mxCell id="IjU1m3otz2W7L9WKnDXW-148" value="&lt;font face=&quot;helvetica&quot;&gt;Global&lt;br&gt;&lt;/font&gt;Agg" style="ellipse;whiteSpace=wrap;html=1;aspect=fixed;fontSize=22;fillColor=#7F00FF;fontColor=#FFFFFF;" vertex="1" parent="1">
          <mxGeometry x="1190" y="430" width="80" height="80" as="geometry" />
        </mxCell>
        <mxCell id="IjU1m3otz2W7L9WKnDXW-150" value="" style="endArrow=classic;html=1;fontSize=22;exitX=1;exitY=0.5;exitDx=0;exitDy=0;entryX=0;entryY=0.5;entryDx=0;entryDy=0;" edge="1" parent="1" source="IjU1m3otz2W7L9WKnDXW-134" target="IjU1m3otz2W7L9WKnDXW-147">
          <mxGeometry width="50" height="50" relative="1" as="geometry">
            <mxPoint x="620" y="415" as="sourcePoint" />
            <mxPoint x="805" y="270" as="targetPoint" />
          </mxGeometry>
        </mxCell>
        <mxCell id="IjU1m3otz2W7L9WKnDXW-152" value="" style="endArrow=classic;html=1;fontSize=22;exitX=1;exitY=0.5;exitDx=0;exitDy=0;entryX=0;entryY=0.5;entryDx=0;entryDy=0;" edge="1" parent="1" source="IjU1m3otz2W7L9WKnDXW-134" target="IjU1m3otz2W7L9WKnDXW-148">
          <mxGeometry width="50" height="50" relative="1" as="geometry">
            <mxPoint x="1090" y="270" as="sourcePoint" />
            <mxPoint x="1200" y="340" as="targetPoint" />
          </mxGeometry>
        </mxCell>
        <mxCell id="IjU1m3otz2W7L9WKnDXW-153" value="" style="endArrow=classic;html=1;fontSize=22;exitX=1;exitY=0.5;exitDx=0;exitDy=0;" edge="1" parent="1" source="IjU1m3otz2W7L9WKnDXW-137">
          <mxGeometry width="50" height="50" relative="1" as="geometry">
            <mxPoint x="1090" y="270" as="sourcePoint" />
            <mxPoint x="1190" y="470" as="targetPoint" />
          </mxGeometry>
        </mxCell>
        <mxCell id="IjU1m3otz2W7L9WKnDXW-154" value="" style="endArrow=classic;html=1;fontSize=22;exitX=1;exitY=0.5;exitDx=0;exitDy=0;entryX=0;entryY=0.5;entryDx=0;entryDy=0;" edge="1" parent="1" source="IjU1m3otz2W7L9WKnDXW-137" target="IjU1m3otz2W7L9WKnDXW-147">
          <mxGeometry width="50" height="50" relative="1" as="geometry">
            <mxPoint x="1090" y="410" as="sourcePoint" />
            <mxPoint x="1200" y="480" as="targetPoint" />
          </mxGeometry>
        </mxCell>
        <mxCell id="IjU1m3otz2W7L9WKnDXW-155" value="" style="endArrow=classic;html=1;fontSize=22;exitX=1;exitY=0.5;exitDx=0;exitDy=0;entryX=0;entryY=0.5;entryDx=0;entryDy=0;" edge="1" parent="1" source="IjU1m3otz2W7L9WKnDXW-140" target="IjU1m3otz2W7L9WKnDXW-147">
          <mxGeometry width="50" height="50" relative="1" as="geometry">
            <mxPoint x="1090" y="410" as="sourcePoint" />
            <mxPoint x="1200" y="340" as="targetPoint" />
          </mxGeometry>
        </mxCell>
        <mxCell id="IjU1m3otz2W7L9WKnDXW-156" value="" style="endArrow=classic;html=1;fontSize=22;exitX=1;exitY=0.5;exitDx=0;exitDy=0;entryX=0;entryY=0.5;entryDx=0;entryDy=0;" edge="1" parent="1" source="IjU1m3otz2W7L9WKnDXW-140" target="IjU1m3otz2W7L9WKnDXW-148">
          <mxGeometry width="50" height="50" relative="1" as="geometry">
            <mxPoint x="1090" y="410" as="sourcePoint" />
            <mxPoint x="1200" y="480" as="targetPoint" />
          </mxGeometry>
        </mxCell>
        <mxCell id="IjU1m3otz2W7L9WKnDXW-157" value="50" style="rounded=0;whiteSpace=wrap;html=1;strokeColor=#A50040;fontColor=#ffffff;fillColor=#FF0000;fontSize=22;" vertex="1" parent="1">
          <mxGeometry x="1215" y="240" width="30" height="40" as="geometry" />
        </mxCell>
        <mxCell id="IjU1m3otz2W7L9WKnDXW-158" value="16" style="rounded=0;whiteSpace=wrap;html=1;strokeColor=#A50040;fontColor=#ffffff;fontSize=22;fillColor=#7F00FF;" vertex="1" parent="1">
          <mxGeometry x="1215" y="380" width="30" height="40" as="geometry" />
        </mxCell>
      </root>
    </mxGraphModel>
  </diagram>
</mxfile>
